<?xml version="1.0" encoding="utf-8"?>
<!-- Generator: Adobe Illustrator 24.0.1, SVG Export Plug-In . SVG Version: 6.00 Build 0)  -->
<svg version="1.1" id="Warstwa_1" xmlns="http://www.w3.org/2000/svg" xmlns:xlink="http://www.w3.org/1999/xlink" x="0px" y="0px"
	 viewBox="0 0 707.1 200" style="enable-background:new 0 0 707.1 200;" xml:space="preserve">
<style type="text/css">
	.st0{fill:#005F21;}
	.st1{fill:#E30613;}
	.st2{fill:#FFFFFF;}
	.st3{fill:#007F2D;}
</style>
<g>
	<path class="st0" d="M399.2,184.7c-1.4,0-2.2-1-2.2-2l0-37.4c0-1.2,0.8-2.1,2-2.1h5.4c1.1,0,2,0.9,2,2.1l0,37.4c0,1-0.7,2-2.2,2
		H399.2z M297.5,183.1c-0.5,1.2-1.2,1.6-2.4,1.6h-2c-1.4,0-2.1-0.5-2.6-1.7c-2.6-5.5-10.3-22-10.3-22s-0.3,16-0.4,21.3
		c0,1.7-0.9,2.4-2.5,2.4h-3.9c-1.7,0-2.5-1-2.4-2.5c0.4-9.2,1.2-27.6,1.6-36.8c0.1-1.4,0.9-2.2,2.3-2.2h3.6c1.5,0,2.2,0.6,2.8,1.8
		c3.3,6.8,13.1,27.1,13.1,27.1s9-20.3,12-27.1c0.6-1.3,1.3-1.8,2.7-1.8h3.4c1.4,0,2.2,0.7,2.3,2.1c0.5,9.2,1.4,27.6,1.8,36.8
		c0.1,1.5-0.6,2.5-2.3,2.5h-4.7c-1.7,0-2.4-0.8-2.4-2.8c-0.2-5.2-0.7-20.9-0.7-20.9S299.8,177.5,297.5,183.1z M390.6,181.6
		c0.5,0.7,0.5,1.5,0.2,2.1c-0.3,0.6-1,1-1.8,1h-5.4c-1.4,0-2.3-0.5-3-1.7l-7.1-12l-7.1,12c-0.7,1.2-1.6,1.7-3.1,1.7h-4.8
		c-1.1,0-1.6-0.6-1.7-0.9c-0.3-0.6-0.3-1.4,0.2-2.1l11.6-18.3l-10.7-17.2c-0.4-0.7-0.5-1.5-0.1-2.1c0.3-0.6,0.9-0.9,1.7-0.9h5.5
		c0.8,0,2,0.3,2.9,1.7l6.3,10.5l6.4-10.7c0.7-1.1,1.4-1.5,2.8-1.5h5.2c0.8,0,1.4,0.3,1.7,0.9c0.3,0.6,0.2,1.4-0.2,2.1l-10.9,16.6
		L390.6,181.6z M415,163.9c0-13.3,7.1-21.4,18.9-21.4c4.1,0,7.6,0.7,11.8,2.4c1.8,0.8,1.6,2.2,1.3,3l-1.3,3.4
		c-0.2,0.6-0.6,1-1.1,1.2c-0.6,0.3-1.3,0-1.7-0.2c-2.6-1.2-5.2-1.8-7.9-1.8c-6.4,0-10.2,4.9-10.2,13.4c0,8.4,3.8,13.4,10.2,13.4
		c2.6,0,5.3-0.6,7.9-1.8c0.5-0.2,1.1-0.4,1.7-0.2c0.5,0.2,0.8,0.6,1.1,1.2l1.3,3.4c0.3,0.8,0.5,2.2-1.3,3c-4.2,1.7-7.7,2.4-11.8,2.4
		C422.1,185.3,415,177.2,415,163.9z M451.5,163.9c0,13.1,7.1,21.4,18.4,21.4s18.4-8.3,18.4-21.4c0-13.1-7.1-21.4-18.4-21.4
		S451.5,150.8,451.5,163.9z M461.3,163.9c0-8.8,2.9-13.3,8.6-13.3c5.7,0,8.6,4.5,8.6,13.3c0,8.8-2.9,13.3-8.6,13.3
		C464.2,177.2,461.3,172.8,461.3,163.9z M332.2,137.5c-0.3-0.5-0.6-1-0.6-1.7c0.1-0.7,0.6-1.2,1.1-1.5l7.8-5.5
		c0.5-0.4,1.1-0.8,1.9-0.6c0.7,0.1,1.2,0.7,1.5,1.1l1.7,2.6c0.4,0.6,0.5,1.2,0.4,1.7c-0.1,0.5-0.5,0.9-1.1,1.3l-8.7,4.8
		c-0.5,0.3-0.9,0.4-1.3,0.4c-0.7,0-1.2-0.4-1.7-1.1L332.2,137.5z M349,184.7c1.5,0,2.3-0.8,2.3-2.3v-3.3c0-1.4-0.9-2.3-2.4-2.3
		h-14.3v-9.6h12.3c1.5,0,2.3-0.8,2.3-2.2v-3.4c0-1.4-0.8-2.2-2.3-2.2h-12.3V151h13.4c0.9,0,2.7,0,2.9-2l0.4-3.4
		c0.1-0.5,0.1-1.2-0.4-1.7c-0.4-0.4-1-0.6-1.8-0.6h-21.9c-1.1,0-2,0.9-2,2.1l0,37.4c0,1,0.7,2,2.2,2H349z"/>
	<g>
		<path class="st0" d="M376.7,53.1c0,0-8.9,0-11.7,0c-2.8,0-5,0.7-7.2,3.3c-2.2,2.6-16.5,19-16.5,19V53.1h-16.2V110
			c0,1.8,1.5,3.2,3.2,3.2h13V86c0,0,12.1,19,14.3,22.3c2.1,3.3,4.2,5,9.1,5c4.9,0,13.3,0,13.3,0l-22.7-35.5L376.7,53.1L376.7,53.1z
			 M308.2,53.1c0,0-35.1,0-36,0l0,0v54.8c0,3,3,5.4,6.1,5.4h30c1.8,0,3.2-1.5,3.2-3.2v-7.8h-20.7c-1.3,0-2.4-1.1-2.4-2.5V87.1h18.4
			v-11h-18.4V64.1h23.1v-7.8C311.5,54.5,310,53.1,308.2,53.1L308.2,53.1z M422.1,53.1c0,0-35.1,0-36.1,0l0,0v54.8c0,3,3,5.4,6.1,5.4
			h30c1.8,0,3.2-1.5,3.2-3.2v-7.8h-20.7c-1.3,0-2.4-1.1-2.4-2.5V87.1h18.4v-11h-18.4V64.1h23.1v-7.8
			C425.4,54.5,423.9,53.1,422.1,53.1L422.1,53.1z M192.7,53.1h-16.2V110c0,1.8,1.5,3.2,3.2,3.2h12.9V53.1L192.7,53.1z M158.5,53.1
			c0,0-35.1,0-36.1,0l0,0v54.8c0,3.1,3,5.4,6.1,5.4h30c1.8,0,3.2-1.5,3.2-3.2v-7.8h-20.7c-1.3,0-2.4-1.1-2.4-2.5V87.1h18.4v-11
			h-18.4V64.1h23.1v-7.8C161.8,54.5,160.3,53.1,158.5,53.1L158.5,53.1z M106.1,53.1H89.9v23.1H75.8V53.1H57v2.4c0,0,2.6,1,2.6,4
			v53.8h16.2V87.1h14.2v26.1h16.2V53.1L106.1,53.1z M255.8,53.1V110c0,1.8-1.5,3.2-3.2,3.2h-9.9l-21.9-34.5c0,0,0.5,2.9,0.5,6.4
			c0,3.6,0,28,0,28h-12.1V53.1c0,0,1.9,0,7.8,0c4,0,6.9,1.7,9,5c1.8,2.8,18.3,28.8,18.3,28.8s-0.6-1.8-0.6-6.5c0-4.8,0-27.2,0-27.2
			H255.8L255.8,53.1z M488.3,53.1v2.4c0,0-2.6,1-2.6,4l0,50.5c0,1.8-1.4,3.2-3.2,3.2h-9.9l-21.9-34.5c0,0,0.5,2.9,0.5,6.4
			c0,3.6,0,28,0,28h-12.1V53.1c0,0,1.9,0,7.8,0c4,0,6.9,1.7,9,5c1.8,2.8,18.3,28.8,18.3,28.8s-0.6-1.8-0.6-6.5c0-4.8,0-27.2,0-27.2
			H488.3z"/>
		<path class="st1" d="M26.9,75c-0.8,0.6-1.9-0.2-1.6-1.1c0.4-1.3,8.6-26.4,8.6-26.4L11.4,31.2c-0.8-0.6-0.4-1.8,0.6-1.8
			c1.4,0,27.7,0,27.7,0s8.1-25,8.6-26.4c0.3-0.9,1.6-1,1.9,0c0.4,1.3,8.6,26.4,8.6,26.4s26.3,0,27.7,0c1,0,1.4,1.2,0.6,1.8
			l-13.4,9.7H57.9L53,25.8l-4.9,15.1H32.3l12.8,9.3l-4.9,15.1C40.2,65.3,27.7,74.4,26.9,75z"/>
	</g>
	<g>
		<circle class="st2" cx="600.8" cy="113.6" r="85.2"/>
		<path class="st3" d="M607.9,126.3c0.3-0.8,0.5-1.7,0.2-2.9c-0.5-2.6-2.1-6.2-3.7-9.1v-10.4c0,0,0-25.2,0-39
			c0-18-1.3-30.4-9.4-36.3c1.9-0.1,3.8-0.2,5.7-0.2c7.8,0,15.4,1.1,22.5,3c-4.9,4.1-7,9.3-8.5,16.6c4.7-6.8,11.1-11.6,18.2-13.3
			c6.8,2.8,13.1,6.4,18.9,10.8c-16.1,0-24.8,9.2-31.3,22c12.7-12.4,29-17.1,43-11.3c5.2,5.7,9.6,12,13.1,18.9
			c-6.8-4.9-19.6-9.5-26.1-3.5c2,8-5.3,7.4-12.7,6.2c-15.7-2.6-18.9,13.7-9.7,18.9c5.7,2.6,12.3,0,13.4-4.6c0.7-2.7-1.5-5.3-4.7-4.4
			c2.5,5-6.8,6.3-7.2,0.5c-0.2-2.7,2.4-4.2,7.5-4.4c24.1-1.1,39.9-2.5,46.1,12.6c3.6,8.8,3,18.8,0.7,21.9c-3.6-5.3-10.3-9-34.7-8.1
			c-3.8,0.1-5,3.6-5,3.6h6.8c1.2,1.5,4.1,6.6,5.4,9.3c0.4,0.8,1.3,3,0.6,3.8c-3-0.4-7.1-0.4-8.9-0.3c-2.3,0.1-9,1.3-13.5,3
			c-1.3,0.5-1.2,0.8,0.2,0.8c0.8,0,1.2,0,2.3,0c1.4,1.1,3.6,2,5.6,2.4c1.9,0.4,3.4,0.4,4.5,0.2c1.1-0.2,2.5-0.3,3,0.3
			c0.3,0.3,0.5,0.3,0.4-0.2c0-0.6-0.4-1.7-1.1-2.4c-0.3-0.4-0.2-0.6,0.2-0.6c1,0,3.4-0.1,4.4-0.5c0.2-0.1,0.4-0.1,0.3,0.2
			c-0.3,1,0.2,2.1,1.1,2.7c2,1.4,3.9,2.7,6.9,8c3.2,5.7,4,8.5,0.7,9.9c-2.2,0.9-3.1,1.2-4.7,1.5c-0.7,0.2-0.7,0.2-0.5,0.9
			c0.2,0.9,0.4,2.2,0.5,3.1c0.1,0.7,0.2,1.6-1.3,2c-1.5,0.5-5.7,1.3-7.5,1.6c-0.3,0.1-0.2,0.5,0.1,0.4c1.7-0.1,3.9,0,5.4,0.2
			c0.7,0.1,2.9,2.2,2.9,3c0,1.7-0.8,3.4-2.2,4.7c-0.8,0.7-0.8,0.8-0.2,2.2c0.5,1.2,1.7,3.8,0.7,6c-3.3,7.4-12.5,6.1-22.8,5.2
			c-4.9-0.5-5.4-0.4-5.4,2.7c-0.1,3.4,0.1,6.5,0.5,10.4c-8.8,3.1-18.2,4.7-28.1,4.7c-5.6,0-11-0.5-16.3-1.6
			c-0.6-4.8-0.8-10.7-0.1-13.4c0.7-2.6,3.4-2.3,5.5-2c4.1,0.6,8.5,1,11.7,0.8c3.8-0.2,5.4-1.3,6.3-3.9c0.9-2.6-0.4-6-0.9-7.2
			c-0.7-1.7-0.3-1.7,1.6-3.8c1.3-1.4,1.4-2,1-2.8c-0.5-1-1.2-2-2.2-2.7c-0.2-0.2-0.3-0.2-0.7-0.2c-2.2,0.1-4.1,0.1-5.8,0
			c-0.3,0-0.3-0.3,0-0.4c3.3-0.7,5.5-1.5,7.6-2.5c0.6-0.3,0.6-0.5,0.5-1.1c-0.3-1.1-0.8-2.3-1.3-3.3c-0.3-0.6-0.2-0.9,0.6-0.9
			c1.4-0.1,3.4-0.4,4.8-1.2c2.3-1.3,2.5-2.5,1.6-5.2c-0.8-2.3-2.3-6.1-3.6-8.6c-1.5-2.9-2.1-3.6-3-4.4c-1.1-1-2.4-2.5-2.5-3
			c-0.1-0.4,0.2-0.8,0.4-1.4c0.5-1.4,0.8-2.5,0.9-3.8C607.3,126.2,607.6,126.3,607.9,126.3z"/>
		<path class="st1" d="M565.3,36.2c6-2.7,12.3-4.8,18.9-6.1c5.6,12.7,5.3,24,1.1,33.8C583,49.1,573.9,39.4,565.3,36.2z M572.3,81.4
			c2.9-2.6,5.5-5.4,7.7-8.4c-3.1-14.8-14.2-25.9-29.5-28.1c-7.6,5.6-14.3,12.4-19.6,20.2C549.9,57.9,566.4,69.7,572.3,81.4z
			 M564.4,87.5c-9.8-13.3-29.5-12-43-4.8c-2.9,7.3-4.7,15.1-5.4,23.3C532.4,103.4,550.4,97.1,564.4,87.5z M558.4,187.5
			c-5.1-15.3,1.6-30.6,25.5-27.4c1.4-6.3-0.8-9.7-6-11.8c-16-6.7-4.4-28,10-34h16.5v-10.4c-22.1,0-33.3,0.7-40.7,2
			c-6.1,1.1-10,3.8-9,8.4c1.3,6.1,10.4,5.2,7.6-0.6c3.5-0.9,6.1,1.9,5.4,4.9c-0.5,2.6-1.8,4.3-5.1,5.7c-4.8,2.1-25.2,6.8-31.5,38.5
			C538.4,172.8,547.7,181.3,558.4,187.5z M552.8,124c-3.8-2.1-6.6-8.1-3.6-13.6c-5.1,1.5-13.1,2.7-33.5,2.8c0,0.1,0,0.2,0,0.4
			c0,12.4,2.7,24.2,7.5,34.9C530.4,135,541.6,126.2,552.8,124z M606.1,129.7c0.4-1.3,0.7-2.3,0.8-3.5c-1.5-0.1-4.4-0.1-6.4,0
			c-3.7,0.2-10,1.6-14.3,3c-0.2,0.1-0.3,0.1-0.5,0.2c-1.5,0.6-1,1.1,0.2,1.2c1.1,0.1,1.8,0,2.5,0c1.5,1.3,3.9,2.5,6.1,3
			c1.9,0.5,3.4,0.4,4.6,0.1c1.4-0.4,2.7-0.3,3.3,0.3c0.2,0.2,0.6,0,0.5-0.3c-0.1-0.7-0.5-1.5-1.1-2.3c-0.4-0.5-0.2-0.8,0.2-0.8
			c0.8,0,1.7-0.1,2.6-0.3C605.1,130.1,605.8,129.8,606.1,129.7z"/>
	</g>
</g>
</svg>
